<mxfile host="app.diagrams.net" modified="2023-11-08T09:59:06.190Z" agent="Mozilla/5.0 (Windows NT 10.0; Win64; x64) AppleWebKit/537.36 (KHTML, like Gecko) Chrome/116.0.0.0 Safari/537.36" etag="AxrbLXhQybURG7I9N30q" version="22.0.8" type="device">
  <diagram name="Page-1" id="MvvM4aFKOKj9ZxCiJFYD">
    <mxGraphModel dx="3200" dy="-326" grid="1" gridSize="10" guides="1" tooltips="1" connect="1" arrows="1" fold="1" page="1" pageScale="1" pageWidth="850" pageHeight="1100" math="0" shadow="0">
      <root>
        <mxCell id="0" />
        <mxCell id="1" parent="0" />
        <mxCell id="RAl33mNyI0EfnBr3IOk9-2" value="EndpointHtmlRenderer" style="swimlane;fontStyle=1;align=center;verticalAlign=top;childLayout=stackLayout;horizontal=1;startSize=26;horizontalStack=0;resizeParent=1;resizeParentMax=0;resizeLast=0;collapsible=1;marginBottom=0;whiteSpace=wrap;html=1;hachureGap=4;fontFamily=Architects Daughter;fontSource=https%3A%2F%2Ffonts.googleapis.com%2Fcss%3Ffamily%3DArchitects%2BDaughter;fontSize=20;swimlaneLine=1;" parent="1" vertex="1">
          <mxGeometry x="-1056" y="1480" width="260" height="96" as="geometry">
            <mxRectangle x="370.5" y="822" width="129" height="36" as="alternateBounds" />
          </mxGeometry>
        </mxCell>
        <mxCell id="RAl33mNyI0EfnBr3IOk9-5" value="-RenderEndpointComponent()" style="text;whiteSpace=wrap;fontSize=16;fontFamily=Architects Daughter;fontSource=https%3A%2F%2Ffonts.googleapis.com%2Fcss%3Ffamily%3DArchitects%2BDaughter;" parent="RAl33mNyI0EfnBr3IOk9-2" vertex="1">
          <mxGeometry y="26" width="260" height="30" as="geometry" />
        </mxCell>
        <mxCell id="k4jPSxrWyxmU4jEzMSMS-5" value="-BeginRenderingComponent()" style="text;whiteSpace=wrap;fontSize=16;fontFamily=Architects Daughter;fontSource=https%3A%2F%2Ffonts.googleapis.com%2Fcss%3Ffamily%3DArchitects%2BDaughter;" vertex="1" parent="RAl33mNyI0EfnBr3IOk9-2">
          <mxGeometry y="56" width="260" height="40" as="geometry" />
        </mxCell>
        <mxCell id="RAl33mNyI0EfnBr3IOk9-8" style="edgeStyle=orthogonalEdgeStyle;rounded=0;orthogonalLoop=1;jettySize=auto;html=1;exitX=0.5;exitY=1;exitDx=0;exitDy=0;entryX=0.5;entryY=0;entryDx=0;entryDy=0;endArrow=block;endFill=1;" parent="1" source="RAl33mNyI0EfnBr3IOk9-9" target="RAl33mNyI0EfnBr3IOk9-19" edge="1">
          <mxGeometry relative="1" as="geometry" />
        </mxCell>
        <mxCell id="RAl33mNyI0EfnBr3IOk9-9" value="LocalizeSiteMapProvider" style="swimlane;fontStyle=1;align=center;verticalAlign=top;childLayout=stackLayout;horizontal=1;startSize=26;horizontalStack=0;resizeParent=1;resizeParentMax=0;resizeLast=0;collapsible=1;marginBottom=0;whiteSpace=wrap;html=1;hachureGap=4;fontFamily=Architects Daughter;fontSource=https%3A%2F%2Ffonts.googleapis.com%2Fcss%3Ffamily%3DArchitects%2BDaughter;fontSize=20;swimlaneLine=1;" parent="1" vertex="1">
          <mxGeometry x="848" y="1731" width="332" height="138" as="geometry">
            <mxRectangle x="248" y="1073" width="372" height="47" as="alternateBounds" />
          </mxGeometry>
        </mxCell>
        <mxCell id="RAl33mNyI0EfnBr3IOk9-10" value="&lt;span style=&quot;color: rgb(0, 0, 0); font-family: &amp;quot;Architects Daughter&amp;quot;; font-size: 16px; font-style: normal; font-variant-ligatures: normal; font-variant-caps: normal; font-weight: 400; letter-spacing: normal; orphans: 2; text-align: left; text-indent: 0px; text-transform: none; widows: 2; word-spacing: 0px; -webkit-text-stroke-width: 0px; background-color: rgb(251, 251, 251); text-decoration-thickness: initial; text-decoration-style: initial; text-decoration-color: initial; float: none; display: inline !important;&quot;&gt;-ISiteMapProvider&lt;/span&gt;" style="text;whiteSpace=wrap;html=1;" parent="RAl33mNyI0EfnBr3IOk9-9" vertex="1">
          <mxGeometry y="26" width="332" height="34" as="geometry" />
        </mxCell>
        <mxCell id="RAl33mNyI0EfnBr3IOk9-11" value="" style="line;strokeWidth=1;fillColor=none;align=left;verticalAlign=middle;spacingTop=-1;spacingLeft=3;spacingRight=3;rotatable=0;labelPosition=right;points=[];portConstraint=eastwest;strokeColor=inherit;hachureGap=4;fontFamily=Architects Daughter;fontSource=https%3A%2F%2Ffonts.googleapis.com%2Fcss%3Ffamily%3DArchitects%2BDaughter;fontSize=20;swimlaneLine=1;" parent="RAl33mNyI0EfnBr3IOk9-9" vertex="1">
          <mxGeometry y="60" width="332" height="8" as="geometry" />
        </mxCell>
        <mxCell id="RAl33mNyI0EfnBr3IOk9-12" value="&lt;span style=&quot;color: rgb(0, 0, 0); font-family: &amp;quot;Architects Daughter&amp;quot;; font-size: 16px; font-style: normal; font-variant-ligatures: normal; font-variant-caps: normal; font-weight: 400; letter-spacing: normal; orphans: 2; text-align: left; text-indent: 0px; text-transform: none; widows: 2; word-spacing: 0px; -webkit-text-stroke-width: 0px; background-color: rgb(251, 251, 251); text-decoration-thickness: initial; text-decoration-style: initial; text-decoration-color: initial; float: none; display: inline !important;&quot;&gt;+GetMenuAsync(cultureInfo)&lt;/span&gt;" style="text;whiteSpace=wrap;html=1;fontSize=16;" parent="RAl33mNyI0EfnBr3IOk9-9" vertex="1">
          <mxGeometry y="68" width="332" height="36" as="geometry" />
        </mxCell>
        <mxCell id="RAl33mNyI0EfnBr3IOk9-13" value="+GetMenuAsync(nodeType, cultureInfo)" style="text;whiteSpace=wrap;fontFamily=Architects Daughter;fontSource=https%3A%2F%2Ffonts.googleapis.com%2Fcss%3Ffamily%3DArchitects%2BDaughter;fontSize=16;" parent="RAl33mNyI0EfnBr3IOk9-9" vertex="1">
          <mxGeometry y="104" width="332" height="34" as="geometry" />
        </mxCell>
        <mxCell id="RAl33mNyI0EfnBr3IOk9-19" value="DB/WebAPISiteMapProvider" style="swimlane;fontStyle=1;align=center;verticalAlign=top;childLayout=stackLayout;horizontal=1;startSize=26;horizontalStack=0;resizeParent=1;resizeParentMax=0;resizeLast=0;collapsible=1;marginBottom=0;whiteSpace=wrap;html=1;hachureGap=4;fontFamily=Architects Daughter;fontSource=https%3A%2F%2Ffonts.googleapis.com%2Fcss%3Ffamily%3DArchitects%2BDaughter;fontSize=20;swimlaneLine=1;" parent="1" vertex="1">
          <mxGeometry x="848" y="1922" width="332" height="104" as="geometry">
            <mxRectangle x="248" y="1180" width="316" height="52" as="alternateBounds" />
          </mxGeometry>
        </mxCell>
        <mxCell id="RAl33mNyI0EfnBr3IOk9-20" value="" style="line;strokeWidth=1;fillColor=none;align=left;verticalAlign=middle;spacingTop=-1;spacingLeft=3;spacingRight=3;rotatable=0;labelPosition=right;points=[];portConstraint=eastwest;strokeColor=inherit;hachureGap=4;fontFamily=Architects Daughter;fontSource=https%3A%2F%2Ffonts.googleapis.com%2Fcss%3Ffamily%3DArchitects%2BDaughter;fontSize=20;swimlaneLine=1;" parent="RAl33mNyI0EfnBr3IOk9-19" vertex="1">
          <mxGeometry y="26" width="332" height="8" as="geometry" />
        </mxCell>
        <mxCell id="RAl33mNyI0EfnBr3IOk9-21" value="&lt;span style=&quot;color: rgb(0, 0, 0); font-family: &amp;quot;Architects Daughter&amp;quot;; font-size: 16px; font-style: normal; font-variant-ligatures: normal; font-variant-caps: normal; font-weight: 400; letter-spacing: normal; orphans: 2; text-align: left; text-indent: 0px; text-transform: none; widows: 2; word-spacing: 0px; -webkit-text-stroke-width: 0px; background-color: rgb(251, 251, 251); text-decoration-thickness: initial; text-decoration-style: initial; text-decoration-color: initial; float: none; display: inline !important;&quot;&gt;+GetMenuAsync(cultureInfo)&lt;/span&gt;" style="text;whiteSpace=wrap;html=1;fontSize=16;" parent="RAl33mNyI0EfnBr3IOk9-19" vertex="1">
          <mxGeometry y="34" width="332" height="36" as="geometry" />
        </mxCell>
        <mxCell id="RAl33mNyI0EfnBr3IOk9-22" value="+GetMenuAsync(nodeType, cultureInfo)" style="text;whiteSpace=wrap;fontFamily=Architects Daughter;fontSource=https%3A%2F%2Ffonts.googleapis.com%2Fcss%3Ffamily%3DArchitects%2BDaughter;fontSize=16;" parent="RAl33mNyI0EfnBr3IOk9-19" vertex="1">
          <mxGeometry y="70" width="332" height="34" as="geometry" />
        </mxCell>
        <mxCell id="RAl33mNyI0EfnBr3IOk9-29" style="edgeStyle=orthogonalEdgeStyle;rounded=0;orthogonalLoop=1;jettySize=auto;html=1;exitX=0.5;exitY=1;exitDx=0;exitDy=0;entryX=0.5;entryY=0;entryDx=0;entryDy=0;endArrow=block;endFill=1;" parent="1" source="RAl33mNyI0EfnBr3IOk9-30" target="RAl33mNyI0EfnBr3IOk9-9" edge="1">
          <mxGeometry relative="1" as="geometry" />
        </mxCell>
        <mxCell id="RAl33mNyI0EfnBr3IOk9-30" value="CacheSiteMapProvider" style="swimlane;fontStyle=1;align=center;verticalAlign=top;childLayout=stackLayout;horizontal=1;startSize=26;horizontalStack=0;resizeParent=1;resizeParentMax=0;resizeLast=0;collapsible=1;marginBottom=0;whiteSpace=wrap;html=1;hachureGap=4;fontFamily=Architects Daughter;fontSource=https%3A%2F%2Ffonts.googleapis.com%2Fcss%3Ffamily%3DArchitects%2BDaughter;fontSize=20;swimlaneLine=1;fillColor=none;" parent="1" vertex="1">
          <mxGeometry x="849" y="1550" width="330" height="138" as="geometry">
            <mxRectangle x="250" y="955" width="370" height="50" as="alternateBounds" />
          </mxGeometry>
        </mxCell>
        <mxCell id="RAl33mNyI0EfnBr3IOk9-31" value="&lt;span style=&quot;color: rgb(0, 0, 0); font-family: &amp;quot;Architects Daughter&amp;quot;; font-size: 16px; font-style: normal; font-variant-ligatures: normal; font-variant-caps: normal; font-weight: 400; letter-spacing: normal; orphans: 2; text-align: left; text-indent: 0px; text-transform: none; widows: 2; word-spacing: 0px; -webkit-text-stroke-width: 0px; background-color: rgb(251, 251, 251); text-decoration-thickness: initial; text-decoration-style: initial; text-decoration-color: initial; float: none; display: inline !important;&quot;&gt;-ISiteMapProvider&lt;/span&gt;" style="text;whiteSpace=wrap;html=1;" parent="RAl33mNyI0EfnBr3IOk9-30" vertex="1">
          <mxGeometry y="26" width="330" height="34" as="geometry" />
        </mxCell>
        <mxCell id="RAl33mNyI0EfnBr3IOk9-32" value="" style="line;strokeWidth=1;fillColor=none;align=left;verticalAlign=middle;spacingTop=-1;spacingLeft=3;spacingRight=3;rotatable=0;labelPosition=right;points=[];portConstraint=eastwest;strokeColor=inherit;hachureGap=4;fontFamily=Architects Daughter;fontSource=https%3A%2F%2Ffonts.googleapis.com%2Fcss%3Ffamily%3DArchitects%2BDaughter;fontSize=20;swimlaneLine=1;" parent="RAl33mNyI0EfnBr3IOk9-30" vertex="1">
          <mxGeometry y="60" width="330" height="8" as="geometry" />
        </mxCell>
        <mxCell id="RAl33mNyI0EfnBr3IOk9-33" value="&lt;span style=&quot;color: rgb(0, 0, 0); font-family: &amp;quot;Architects Daughter&amp;quot;; font-size: 16px; font-style: normal; font-variant-ligatures: normal; font-variant-caps: normal; font-weight: 400; letter-spacing: normal; orphans: 2; text-align: left; text-indent: 0px; text-transform: none; widows: 2; word-spacing: 0px; -webkit-text-stroke-width: 0px; background-color: rgb(251, 251, 251); text-decoration-thickness: initial; text-decoration-style: initial; text-decoration-color: initial; float: none; display: inline !important;&quot;&gt;+GetMenuAsync(cultureInfo)&lt;/span&gt;" style="text;whiteSpace=wrap;html=1;fontSize=16;" parent="RAl33mNyI0EfnBr3IOk9-30" vertex="1">
          <mxGeometry y="68" width="330" height="36" as="geometry" />
        </mxCell>
        <mxCell id="RAl33mNyI0EfnBr3IOk9-34" value="+GetMenuAsync(nodeType, cultureInfo)" style="text;whiteSpace=wrap;fontFamily=Architects Daughter;fontSource=https%3A%2F%2Ffonts.googleapis.com%2Fcss%3Ffamily%3DArchitects%2BDaughter;fontSize=16;" parent="RAl33mNyI0EfnBr3IOk9-30" vertex="1">
          <mxGeometry y="104" width="330" height="34" as="geometry" />
        </mxCell>
        <mxCell id="RAl33mNyI0EfnBr3IOk9-36" style="edgeStyle=orthogonalEdgeStyle;rounded=0;orthogonalLoop=1;jettySize=auto;html=1;exitX=0;exitY=0.25;exitDx=0;exitDy=0;entryX=1;entryY=0.25;entryDx=0;entryDy=0;endArrow=block;endFill=0;dashed=1;" parent="1" source="RAl33mNyI0EfnBr3IOk9-12" edge="1">
          <mxGeometry relative="1" as="geometry">
            <mxPoint x="630" y="1808.5" as="targetPoint" />
          </mxGeometry>
        </mxCell>
        <mxCell id="RAl33mNyI0EfnBr3IOk9-37" style="edgeStyle=orthogonalEdgeStyle;rounded=0;orthogonalLoop=1;jettySize=auto;html=1;exitX=0;exitY=0.75;exitDx=0;exitDy=0;entryX=1;entryY=0.25;entryDx=0;entryDy=0;endArrow=block;endFill=0;dashed=1;" parent="1" source="RAl33mNyI0EfnBr3IOk9-21" edge="1">
          <mxGeometry relative="1" as="geometry">
            <mxPoint x="630" y="1808.5" as="targetPoint" />
          </mxGeometry>
        </mxCell>
        <mxCell id="RAl33mNyI0EfnBr3IOk9-38" style="edgeStyle=orthogonalEdgeStyle;rounded=0;orthogonalLoop=1;jettySize=auto;html=1;exitX=0;exitY=0.5;exitDx=0;exitDy=0;entryX=1;entryY=0.25;entryDx=0;entryDy=0;dashed=1;endArrow=block;endFill=0;" parent="1" source="RAl33mNyI0EfnBr3IOk9-33" edge="1">
          <mxGeometry relative="1" as="geometry">
            <mxPoint x="630" y="1808.5" as="targetPoint" />
          </mxGeometry>
        </mxCell>
        <mxCell id="RAl33mNyI0EfnBr3IOk9-50" style="edgeStyle=orthogonalEdgeStyle;rounded=0;orthogonalLoop=1;jettySize=auto;html=1;exitX=0;exitY=0.5;exitDx=0;exitDy=0;entryX=1;entryY=0.25;entryDx=0;entryDy=0;endArrow=block;endFill=0;" parent="1" source="RAl33mNyI0EfnBr3IOk9-41" target="RAl33mNyI0EfnBr3IOk9-5" edge="1">
          <mxGeometry relative="1" as="geometry">
            <mxPoint x="-870" y="1456.5" as="targetPoint" />
          </mxGeometry>
        </mxCell>
        <mxCell id="RAl33mNyI0EfnBr3IOk9-41" value="StaticHtmlRenderer" style="swimlane;fontStyle=1;align=center;verticalAlign=top;childLayout=stackLayout;horizontal=1;startSize=26;horizontalStack=0;resizeParent=1;resizeParentMax=0;resizeLast=0;collapsible=1;marginBottom=0;whiteSpace=wrap;html=1;hachureGap=4;fontFamily=Architects Daughter;fontSource=https%3A%2F%2Ffonts.googleapis.com%2Fcss%3Ffamily%3DArchitects%2BDaughter;fontSize=20;swimlaneLine=1;" parent="1" vertex="1">
          <mxGeometry x="-680" y="1487" width="270" height="54" as="geometry">
            <mxRectangle x="370.5" y="822" width="129" height="36" as="alternateBounds" />
          </mxGeometry>
        </mxCell>
        <mxCell id="RAl33mNyI0EfnBr3IOk9-51" style="edgeStyle=orthogonalEdgeStyle;rounded=0;orthogonalLoop=1;jettySize=auto;html=1;exitX=0.5;exitY=0;exitDx=0;exitDy=0;entryX=0.5;entryY=1;entryDx=0;entryDy=0;endArrow=block;endFill=0;" parent="1" source="RAl33mNyI0EfnBr3IOk9-48" target="RAl33mNyI0EfnBr3IOk9-41" edge="1">
          <mxGeometry relative="1" as="geometry" />
        </mxCell>
        <mxCell id="RAl33mNyI0EfnBr3IOk9-53" style="edgeStyle=orthogonalEdgeStyle;rounded=0;orthogonalLoop=1;jettySize=auto;html=1;exitX=0;exitY=0.5;exitDx=0;exitDy=0;entryX=1;entryY=0.5;entryDx=0;entryDy=0;endArrow=block;endFill=1;" parent="1" source="RAl33mNyI0EfnBr3IOk9-48" target="RAl33mNyI0EfnBr3IOk9-52" edge="1">
          <mxGeometry relative="1" as="geometry" />
        </mxCell>
        <mxCell id="RAl33mNyI0EfnBr3IOk9-48" value="&lt;i&gt;Renderer&lt;/i&gt;" style="swimlane;fontStyle=1;align=center;verticalAlign=top;childLayout=stackLayout;horizontal=1;startSize=26;horizontalStack=0;resizeParent=1;resizeParentMax=0;resizeLast=0;collapsible=1;marginBottom=0;whiteSpace=wrap;html=1;hachureGap=4;fontFamily=Architects Daughter;fontSource=https%3A%2F%2Ffonts.googleapis.com%2Fcss%3Ffamily%3DArchitects%2BDaughter;fontSize=20;swimlaneLine=1;" parent="1" vertex="1">
          <mxGeometry x="-690" y="1621" width="290" height="66" as="geometry">
            <mxRectangle x="370.5" y="822" width="129" height="36" as="alternateBounds" />
          </mxGeometry>
        </mxCell>
        <mxCell id="RAl33mNyI0EfnBr3IOk9-72" value="#ResolveComponentForRenderMode()" style="text;whiteSpace=wrap;fontFamily=Architects Daughter;fontSource=https%3A%2F%2Ffonts.googleapis.com%2Fcss%3Ffamily%3DArchitects%2BDaughter;fontSize=16;" parent="RAl33mNyI0EfnBr3IOk9-48" vertex="1">
          <mxGeometry y="26" width="290" height="40" as="geometry" />
        </mxCell>
        <mxCell id="k4jPSxrWyxmU4jEzMSMS-6" style="edgeStyle=orthogonalEdgeStyle;rounded=0;orthogonalLoop=1;jettySize=auto;html=1;exitX=0.5;exitY=0;exitDx=0;exitDy=0;entryX=0.5;entryY=1;entryDx=0;entryDy=0;" edge="1" parent="1" source="RAl33mNyI0EfnBr3IOk9-52" target="k4jPSxrWyxmU4jEzMSMS-5">
          <mxGeometry relative="1" as="geometry" />
        </mxCell>
        <mxCell id="RAl33mNyI0EfnBr3IOk9-52" value="......" style="rounded=0;whiteSpace=wrap;html=1;" parent="1" vertex="1">
          <mxGeometry x="-986" y="1624" width="120" height="60" as="geometry" />
        </mxCell>
        <mxCell id="RAl33mNyI0EfnBr3IOk9-56" value="&lt;i&gt;WebRenderer&lt;/i&gt;" style="swimlane;fontStyle=1;align=center;verticalAlign=top;childLayout=stackLayout;horizontal=1;startSize=26;horizontalStack=0;resizeParent=1;resizeParentMax=0;resizeLast=0;collapsible=1;marginBottom=0;whiteSpace=wrap;html=1;hachureGap=4;fontFamily=Architects Daughter;fontSource=https%3A%2F%2Ffonts.googleapis.com%2Fcss%3Ffamily%3DArchitects%2BDaughter;fontSize=20;swimlaneLine=1;" parent="1" vertex="1">
          <mxGeometry x="-690" y="1800" width="290" height="66" as="geometry">
            <mxRectangle x="370.5" y="822" width="129" height="36" as="alternateBounds" />
          </mxGeometry>
        </mxCell>
        <mxCell id="RAl33mNyI0EfnBr3IOk9-69" value="#ResolveComponentForRenderMode()" style="text;whiteSpace=wrap;fontFamily=Architects Daughter;fontSource=https%3A%2F%2Ffonts.googleapis.com%2Fcss%3Ffamily%3DArchitects%2BDaughter;fontSize=16;" parent="RAl33mNyI0EfnBr3IOk9-56" vertex="1">
          <mxGeometry y="26" width="290" height="40" as="geometry" />
        </mxCell>
        <mxCell id="RAl33mNyI0EfnBr3IOk9-60" value="WebAssemblyRenderer" style="swimlane;fontStyle=1;align=center;verticalAlign=top;childLayout=stackLayout;horizontal=1;startSize=26;horizontalStack=0;resizeParent=1;resizeParentMax=0;resizeLast=0;collapsible=1;marginBottom=0;whiteSpace=wrap;html=1;hachureGap=4;fontFamily=Architects Daughter;fontSource=https%3A%2F%2Ffonts.googleapis.com%2Fcss%3Ffamily%3DArchitects%2BDaughter;fontSize=20;swimlaneLine=1;" parent="1" vertex="1">
          <mxGeometry x="-1056" y="1720" width="300" height="66" as="geometry">
            <mxRectangle x="370.5" y="822" width="129" height="36" as="alternateBounds" />
          </mxGeometry>
        </mxCell>
        <mxCell id="RAl33mNyI0EfnBr3IOk9-66" value="#ResolveComponentForRenderMode()" style="text;whiteSpace=wrap;fontFamily=Architects Daughter;fontSource=https%3A%2F%2Ffonts.googleapis.com%2Fcss%3Ffamily%3DArchitects%2BDaughter;fontSize=16;" parent="RAl33mNyI0EfnBr3IOk9-60" vertex="1">
          <mxGeometry y="26" width="300" height="40" as="geometry" />
        </mxCell>
        <mxCell id="RAl33mNyI0EfnBr3IOk9-62" value="RemoteRenderer" style="swimlane;fontStyle=1;align=center;verticalAlign=top;childLayout=stackLayout;horizontal=1;startSize=26;horizontalStack=0;resizeParent=1;resizeParentMax=0;resizeLast=0;collapsible=1;marginBottom=0;whiteSpace=wrap;html=1;hachureGap=4;fontFamily=Architects Daughter;fontSource=https%3A%2F%2Ffonts.googleapis.com%2Fcss%3Ffamily%3DArchitects%2BDaughter;fontSize=20;swimlaneLine=1;" parent="1" vertex="1">
          <mxGeometry x="-1056" y="1840" width="300" height="66" as="geometry">
            <mxRectangle x="370.5" y="822" width="129" height="36" as="alternateBounds" />
          </mxGeometry>
        </mxCell>
        <mxCell id="RAl33mNyI0EfnBr3IOk9-68" value="#ResolveComponentForRenderMode()" style="text;whiteSpace=wrap;fontFamily=Architects Daughter;fontSource=https%3A%2F%2Ffonts.googleapis.com%2Fcss%3Ffamily%3DArchitects%2BDaughter;fontSize=16;" parent="RAl33mNyI0EfnBr3IOk9-62" vertex="1">
          <mxGeometry y="26" width="300" height="40" as="geometry" />
        </mxCell>
        <mxCell id="RAl33mNyI0EfnBr3IOk9-73" style="edgeStyle=orthogonalEdgeStyle;rounded=0;orthogonalLoop=1;jettySize=auto;html=1;exitX=0.5;exitY=1;exitDx=0;exitDy=0;entryX=0.5;entryY=0;entryDx=0;entryDy=0;endArrow=block;endFill=0;" parent="1" source="RAl33mNyI0EfnBr3IOk9-72" target="RAl33mNyI0EfnBr3IOk9-56" edge="1">
          <mxGeometry relative="1" as="geometry" />
        </mxCell>
        <mxCell id="RAl33mNyI0EfnBr3IOk9-75" style="edgeStyle=orthogonalEdgeStyle;rounded=0;orthogonalLoop=1;jettySize=auto;html=1;exitX=0;exitY=0.25;exitDx=0;exitDy=0;entryX=1;entryY=0.25;entryDx=0;entryDy=0;endArrow=block;endFill=0;" parent="1" source="RAl33mNyI0EfnBr3IOk9-69" target="RAl33mNyI0EfnBr3IOk9-66" edge="1">
          <mxGeometry relative="1" as="geometry" />
        </mxCell>
        <mxCell id="RAl33mNyI0EfnBr3IOk9-76" style="edgeStyle=orthogonalEdgeStyle;rounded=0;orthogonalLoop=1;jettySize=auto;html=1;exitX=0;exitY=0.25;exitDx=0;exitDy=0;entryX=1;entryY=0.5;entryDx=0;entryDy=0;endArrow=block;endFill=0;" parent="1" source="RAl33mNyI0EfnBr3IOk9-69" target="RAl33mNyI0EfnBr3IOk9-68" edge="1">
          <mxGeometry relative="1" as="geometry" />
        </mxCell>
        <mxCell id="RAl33mNyI0EfnBr3IOk9-80" value="RazorComponentEndpointInvoker" style="swimlane;fontStyle=1;align=center;verticalAlign=top;childLayout=stackLayout;horizontal=1;startSize=26;horizontalStack=0;resizeParent=1;resizeParentMax=0;resizeLast=0;collapsible=1;marginBottom=0;whiteSpace=wrap;html=1;hachureGap=4;fontFamily=Architects Daughter;fontSource=https%3A%2F%2Ffonts.googleapis.com%2Fcss%3Ffamily%3DArchitects%2BDaughter;fontSize=20;swimlaneLine=1;" parent="1" vertex="1">
          <mxGeometry x="-1488" y="1465" width="340" height="94" as="geometry">
            <mxRectangle x="-514.5" y="786" width="129" height="36" as="alternateBounds" />
          </mxGeometry>
        </mxCell>
        <mxCell id="RAl33mNyI0EfnBr3IOk9-81" value="-EndpointHtmlRenderer" style="text;whiteSpace=wrap;fontSize=16;fontFamily=Architects Daughter;fontSource=https%3A%2F%2Ffonts.googleapis.com%2Fcss%3Ffamily%3DArchitects%2BDaughter;" parent="RAl33mNyI0EfnBr3IOk9-80" vertex="1">
          <mxGeometry y="26" width="340" height="30" as="geometry" />
        </mxCell>
        <mxCell id="RAl33mNyI0EfnBr3IOk9-82" value="" style="line;strokeWidth=1;fillColor=none;align=left;verticalAlign=middle;spacingTop=-1;spacingLeft=3;spacingRight=3;rotatable=0;labelPosition=right;points=[];portConstraint=eastwest;strokeColor=inherit;hachureGap=4;fontFamily=Architects Daughter;fontSource=https%3A%2F%2Ffonts.googleapis.com%2Fcss%3Ffamily%3DArchitects%2BDaughter;fontSize=20;swimlaneLine=1;" parent="RAl33mNyI0EfnBr3IOk9-80" vertex="1">
          <mxGeometry y="56" width="340" height="8" as="geometry" />
        </mxCell>
        <mxCell id="RAl33mNyI0EfnBr3IOk9-83" value="-RenderComponentCore(HttpContext)" style="text;whiteSpace=wrap;fontSize=16;fontFamily=Architects Daughter;fontSource=https%3A%2F%2Ffonts.googleapis.com%2Fcss%3Ffamily%3DArchitects%2BDaughter;" parent="RAl33mNyI0EfnBr3IOk9-80" vertex="1">
          <mxGeometry y="64" width="340" height="30" as="geometry" />
        </mxCell>
        <mxCell id="k4jPSxrWyxmU4jEzMSMS-4" style="edgeStyle=orthogonalEdgeStyle;rounded=0;orthogonalLoop=1;jettySize=auto;html=1;exitX=0;exitY=0.25;exitDx=0;exitDy=0;entryX=1;entryY=0.75;entryDx=0;entryDy=0;endArrow=block;endFill=1;" edge="1" parent="1" source="RAl33mNyI0EfnBr3IOk9-5" target="RAl33mNyI0EfnBr3IOk9-81">
          <mxGeometry relative="1" as="geometry" />
        </mxCell>
      </root>
    </mxGraphModel>
  </diagram>
</mxfile>
